<?xml version="1.0" encoding="utf-8"?>
<svg version="1.1" id="Layer_1" xmlns="http://www.w3.org/2000/svg" xmlns:xlink="http://www.w3.org/1999/xlink" x="0px" y="0px"
	 viewBox="0 0 128 156" style="enable-background:new 0 0 128 156;" xml:space="preserve">
<style type="text/css">
	.st0{stroke:#FFFFFF;stroke-miterlimit:10;}
	.st1{fill:#FFFFFF;stroke:#000000;stroke-miterlimit:10;}
	.st2{fill:#FFFFFF;}
</style>
<path class="st0" d="M117.98,156H10.02C4.49,156,0,151.51,0,145.98V10.02C0,4.49,4.49,0,10.02,0h107.96C123.51,0,128,4.49,128,10.02
	v135.96C128,151.51,123.51,156,117.98,156z"/>
<path class="st1" d="M122.83,12.14"/>
<path class="st2" d="M63.5,115.74L63.5,115.74c-2.76,0-5-2.24-5-5V39.52c0-2.76,2.24-5,5-5h0c2.76,0,5,2.24,5,5v71.22
	C68.5,113.5,66.26,115.74,63.5,115.74z"/>
<path class="st2" d="M96.64,71.08L96.64,71.08c-1.95,1.95-5.12,1.95-7.07,0L61.29,42.79c-1.95-1.95-1.95-5.12,0-7.07l0,0
	c1.95-1.95,5.12-1.95,7.07,0l28.28,28.28C98.6,65.96,98.6,69.13,96.64,71.08z"/>
<path class="st2" d="M66.71,35.72L66.71,35.72c1.95,1.95,1.95,5.12,0,7.07L38.43,71.08c-1.95,1.95-5.12,1.95-7.07,0l0,0
	c-1.95-1.95-1.95-5.12,0-7.07l28.28-28.28C61.59,33.77,64.76,33.77,66.71,35.72z"/>
</svg>
